<?xml version="1.0" encoding="UTF-8" standalone="no"?>
<!-- Created with Inkscape (http://www.inkscape.org/) -->

<svg
   xmlns:dc="http://purl.org/dc/elements/1.1/"
   xmlns:cc="http://creativecommons.org/ns#"
   xmlns:rdf="http://www.w3.org/1999/02/22-rdf-syntax-ns#"
   xmlns:svg="http://www.w3.org/2000/svg"
   xmlns="http://www.w3.org/2000/svg"
   xmlns:sodipodi="http://sodipodi.sourceforge.net/DTD/sodipodi-0.dtd"
   xmlns:inkscape="http://www.inkscape.org/namespaces/inkscape"
   width="30.94364mm"
   height="33.811028mm"
   viewBox="0 0 30.94364 33.811028"
   version="1.1"
   id="svg1224"
   inkscape:version="0.92.3 (2405546, 2018-03-11)"
   sodipodi:docname="pendulumCoords.svg">
  <defs
     id="defs1218">
    <marker
       inkscape:stockid="Arrow1Send"
       orient="auto"
       refY="0.0"
       refX="0.0"
       id="Arrow1Send"
       style="overflow:visible;"
       inkscape:isstock="true">
      <path
         id="path928"
         d="M 0.0,0.0 L 5.0,-5.0 L -12.5,0.0 L 5.0,5.0 L 0.0,0.0 z "
         style="fill-rule:evenodd;stroke:#000000;stroke-width:1pt;stroke-opacity:1;fill:#000000;fill-opacity:1"
         transform="scale(0.2) rotate(180) translate(6,0)" />
    </marker>
    <marker
       inkscape:stockid="Arrow1Lend"
       orient="auto"
       refY="0.0"
       refX="0.0"
       id="Arrow1Lend"
       style="overflow:visible;"
       inkscape:isstock="true">
      <path
         id="path916"
         d="M 0.0,0.0 L 5.0,-5.0 L -12.5,0.0 L 5.0,5.0 L 0.0,0.0 z "
         style="fill-rule:evenodd;stroke:#000000;stroke-width:1pt;stroke-opacity:1;fill:#000000;fill-opacity:1"
         transform="scale(0.8) rotate(180) translate(12.5,0)" />
    </marker>
    <clipPath
       clipPathUnits="userSpaceOnUse"
       id="clipPath30">
      <path
         d="m 127.53883,263.44086 h 29.27121 v 25.0896 h -29.27121 z"
         id="path28"
         inkscape:connector-curvature="0"
         style="clip-rule:evenodd" />
    </clipPath>
    <clipPath
       clipPathUnits="userSpaceOnUse"
       id="clipPath50">
      <path
         d="m 211.17085,330.3465 h 29.27121 v 25.0896 h -29.27121 z"
         id="path48"
         inkscape:connector-curvature="0"
         style="clip-rule:evenodd" />
    </clipPath>
    <clipPath
       clipPathUnits="userSpaceOnUse"
       id="clipPath70">
      <path
         d="M 0,0 H 407.70612 V 403.52451 H 0 Z"
         id="path68"
         inkscape:connector-curvature="0"
         style="clip-rule:evenodd" />
    </clipPath>
    <clipPath
       clipPathUnits="userSpaceOnUse"
       id="clipPath146">
      <path
         d="m 204.89845,200.71686 h 41.81601 v 25.0896 h -41.81601 z"
         id="path144"
         inkscape:connector-curvature="0"
         style="clip-rule:evenodd" />
    </clipPath>
    <clipPath
       clipPathUnits="userSpaceOnUse"
       id="clipPath166">
      <path
         d="m 330.3465,359.61768 h 41.81601 v 25.0896 H 330.3465 Z"
         id="path164"
         inkscape:connector-curvature="0"
         style="clip-rule:evenodd" />
    </clipPath>
    <clipPath
       clipPathUnits="userSpaceOnUse"
       id="clipPath186">
      <path
         d="m 173.53644,110.81243 h 25.0896 v 35.54362 h -25.0896 z"
         id="path184"
         inkscape:connector-curvature="0"
         style="clip-rule:evenodd" />
    </clipPath>
    <clipPath
       clipPathUnits="userSpaceOnUse"
       id="clipPath206">
      <path
         d="m 255.07767,267.62247 h 25.0896 v 35.54361 h -25.0896 z"
         id="path204"
         inkscape:connector-curvature="0"
         style="clip-rule:evenodd" />
    </clipPath>
    <marker
       inkscape:stockid="Arrow1Send"
       orient="auto"
       refY="0"
       refX="0"
       id="Arrow1Send-3"
       style="overflow:visible"
       inkscape:isstock="true">
      <path
         inkscape:connector-curvature="0"
         id="path928-6"
         d="M 0,0 5,-5 -12.5,0 5,5 Z"
         style="fill:#000000;fill-opacity:1;fill-rule:evenodd;stroke:#000000;stroke-width:1.00000003pt;stroke-opacity:1"
         transform="matrix(-0.2,0,0,-0.2,-1.2,0)" />
    </marker>
  </defs>
  <sodipodi:namedview
     id="base"
     pagecolor="#ffffff"
     bordercolor="#666666"
     borderopacity="1.0"
     inkscape:pageopacity="0.0"
     inkscape:pageshadow="2"
     inkscape:zoom="5.6"
     inkscape:cx="68.915998"
     inkscape:cy="44.203938"
     inkscape:document-units="mm"
     inkscape:current-layer="layer1"
     showgrid="false"
     fit-margin-top="0"
     fit-margin-left="0"
     fit-margin-right="0"
     fit-margin-bottom="0"
     inkscape:window-width="1920"
     inkscape:window-height="1099"
     inkscape:window-x="1920"
     inkscape:window-y="27"
     inkscape:window-maximized="1" />
  <metadata
     id="metadata1221">
    <rdf:RDF>
      <cc:Work
         rdf:about="">
        <dc:format>image/svg+xml</dc:format>
        <dc:type
           rdf:resource="http://purl.org/dc/dcmitype/StillImage" />
        <dc:title />
      </cc:Work>
    </rdf:RDF>
  </metadata>
  <g
     inkscape:label="Layer 1"
     inkscape:groupmode="layer"
     id="layer1"
     transform="translate(-91.117465,-104.71353)">
    <g
       id="g1109"
       transform="matrix(0.08466666,0,0,0.08466666,90.91452,104.53651)">
      <g
         id="g24">
        <g
           clip-path="url(#clipPath30)"
           id="g26">
          <g
             transform="matrix(0.03250833,0,0,-0.0306869,127.53919,280.14679)"
             id="g32">
            <path
               inkscape:connector-curvature="0"
               id="path34"
               style="fill:#000000;fill-opacity:1;fill-rule:nonzero;stroke:none"
               d="m 33,157 c 0,67.33334 25.333332,131.33334 76,192 50.66667,60.66666 107.66666,91.33334 171,92 40,0 70.66666,-17.33334 92,-52 0.66666,0.66666 2.33334,2.66666 5,6 2.66666,3.33334 6.33334,7 11,11 4.66666,4 10,8 16,12 22.66666,16 38,24 46,24 2.66666,0 5,-1 7,-3 2,-2 3,-3.66666 3,-5 0,-6 -23,-101 -69,-285 -47.33334,-189.333344 -71,-285.33333 -71,-288 0,-5.33333 15,-8.33333 45,-9 h 25 c 4,-5.33333 6,-8.33333 6,-9 0,-0.66667 -1,-6.66667 -3,-18 -2.66666,-8.66667 -6,-15 -10,-19 h -13 c -20.66666,1.33333 -56.66666,2 -108,2 -18.66667,0 -35.66667,0 -51,0 -15.33333,0 -27.66667,0 -37,0 -9.33333,0 -15,-0.33333 -17,-1 -9.33333,0 -14,2.66667 -14,8 0,2 0.66667,7 2,15 2.66667,10.66667 5,17 7,19 2,2 8.66667,3 20,3 32,0 51.33333,2.33333 58,7 5.33333,3.33333 14.66667,32.66666 28,88 13.33334,55.3333359 20.33334,83.666666 21,85 0,0.666668 -2.33334,-0.333334 -7,-3 C 240,3 206.66667,-10 172,-10 135.33333,-10 103,3.3333321 75,30 47,56.666668 33,99 33,157 Z m 319,169 c -15.33334,52.66666 -40.33334,79 -75,79 -23.33333,0 -45.66667,-10.33334 -67,-31 -21.33333,-20.66666 -38,-47.66666 -50,-81 -19.33333,-52.66667 -33,-107.33333 -41,-164 0,-2 0,-5.66666 0,-11 0,-5.33334 -0.33334,-9.33334 -1,-12 0,-30 6,-50.666664 18,-62 12,-11.333336 26.33333,-17.333334 43,-18 36,0 73,24 111,72 l 8,11 z" />
            <path
               inkscape:connector-curvature="0"
               id="path36"
               style="fill:none;stroke:#000000;stroke-width:1;stroke-linecap:butt;stroke-linejoin:miter;stroke-miterlimit:10;stroke-dasharray:none;stroke-opacity:0.00779999"
               d="m 33,157 c 0,67.33334 25.333332,131.33334 76,192 50.66667,60.66666 107.66666,91.33334 171,92 40,0 70.66666,-17.33334 92,-52 0.66666,0.66666 2.33334,2.66666 5,6 2.66666,3.33334 6.33334,7 11,11 4.66666,4 10,8 16,12 22.66666,16 38,24 46,24 2.66666,0 5,-1 7,-3 2,-2 3,-3.66666 3,-5 0,-6 -23,-101 -69,-285 -47.33334,-189.333344 -71,-285.33333 -71,-288 0,-5.33333 15,-8.33333 45,-9 h 25 c 4,-5.33333 6,-8.33333 6,-9 0,-0.66667 -1,-6.66667 -3,-18 -2.66666,-8.66667 -6,-15 -10,-19 h -13 c -20.66666,1.33333 -56.66666,2 -108,2 -18.66667,0 -35.66667,0 -51,0 -15.33333,0 -27.66667,0 -37,0 -9.33333,0 -15,-0.33333 -17,-1 -9.33333,0 -14,2.66667 -14,8 0,2 0.66667,7 2,15 2.66667,10.66667 5,17 7,19 2,2 8.66667,3 20,3 32,0 51.33333,2.33333 58,7 5.33333,3.33333 14.66667,32.66666 28,88 13.33334,55.3333359 20.33334,83.666666 21,85 0,0.666668 -2.33334,-0.333334 -7,-3 C 240,3 206.66667,-10 172,-10 135.33333,-10 103,3.3333321 75,30 47,56.666668 33,99 33,157 Z m 319,169 c -15.33334,52.66666 -40.33334,79 -75,79 -23.33333,0 -45.66667,-10.33334 -67,-31 -21.33333,-20.66666 -38,-47.66666 -50,-81 -19.33333,-52.66667 -33,-107.33333 -41,-164 0,-2 0,-5.66666 0,-11 0,-5.33334 -0.33334,-9.33334 -1,-12 0,-30 6,-50.666664 18,-62 12,-11.333336 26.33333,-17.333334 43,-18 36,0 73,24 111,72 l 8,11 z" />
          </g>
          <g
             transform="matrix(0.02298339,0,0,-0.02169564,142.0379,284.74985)"
             id="g38">
            <path
               inkscape:connector-curvature="0"
               id="path40"
               style="fill:#000000;fill-opacity:1;fill-rule:nonzero;stroke:none"
               d="m 213,578 -13,-5 c -9.33333,-3.33331 -22.66667,-6.66669 -40,-10 -17.33333,-3.33331 -36.66666,-5.66669 -58,-7 H 83 v 46 h 19 c 31.33333,1.33331 60.33333,6.33331 87,15 26.66667,8.66669 45.33333,16.66669 56,24 10.66667,7.33331 20,14.66669 28,22 1.33334,2 5.33334,3 12,3 6,0 11.66666,-2 17,-6 V 361 l 1,-300 c 4.66666,-4.666668 8.66666,-7.666668 12,-9 3.33334,-1.333332 11.33334,-2.666668 24,-4 12.66666,-1.333332 33.33334,-2 62,-2 h 26 V 0 H 416 C 402,2 349,3 257,3 166.33333,3 114,2 100,0 H 88 v 46 h 26 c 14.66667,0 27.33333,0 38,0 10.66667,0 19,0.333332 25,1 6,0.666668 11.33333,1.666668 16,3 4.66667,1.333332 7.33333,2 8,2 0.66667,0 2.66667,1.666668 6,5 3.33333,3.333332 5.33333,4.666668 6,4 z" />
            <path
               inkscape:connector-curvature="0"
               id="path42"
               style="fill:none;stroke:#000000;stroke-width:1;stroke-linecap:butt;stroke-linejoin:miter;stroke-miterlimit:10;stroke-dasharray:none;stroke-opacity:0.00390003"
               d="m 213,578 -13,-5 c -9.33333,-3.33331 -22.66667,-6.66669 -40,-10 -17.33333,-3.33331 -36.66666,-5.66669 -58,-7 H 83 v 46 h 19 c 31.33333,1.33331 60.33333,6.33331 87,15 26.66667,8.66669 45.33333,16.66669 56,24 10.66667,7.33331 20,14.66669 28,22 1.33334,2 5.33334,3 12,3 6,0 11.66666,-2 17,-6 V 361 l 1,-300 c 4.66666,-4.666668 8.66666,-7.666668 12,-9 3.33334,-1.333332 11.33334,-2.666668 24,-4 12.66666,-1.333332 33.33334,-2 62,-2 h 26 V 0 H 416 C 402,2 349,3 257,3 166.33333,3 114,2 100,0 H 88 v 46 h 26 c 14.66667,0 27.33333,0 38,0 10.66667,0 19,0.333332 25,1 6,0.666668 11.33333,1.666668 16,3 4.66667,1.333332 7.33333,2 8,2 0.66667,0 2.66667,1.666668 6,5 3.33333,3.333332 5.33333,4.666668 6,4 z" />
          </g>
        </g>
      </g>
      <g
         id="g44">
        <g
           clip-path="url(#clipPath50)"
           id="g46">
          <g
             transform="matrix(0.03250833,0,0,-0.0306869,211.1712,347.05243)"
             id="g52">
            <path
               inkscape:connector-curvature="0"
               id="path54"
               style="fill:#000000;fill-opacity:1;fill-rule:nonzero;stroke:none"
               d="m 33,157 c 0,67.33334 25.333332,131.33334 76,192 50.66667,60.66666 107.66666,91.33334 171,92 40,0 70.66666,-17.33334 92,-52 0.66666,0.66666 2.33334,2.66666 5,6 2.66666,3.33334 6.33334,7 11,11 4.66666,4 10,8 16,12 22.66666,16 38,24 46,24 2.66666,0 5,-1 7,-3 2,-2 3,-3.66666 3,-5 0,-6 -23,-101 -69,-285 -47.33334,-189.333344 -71,-285.33333 -71,-288 0,-5.33333 15,-8.33333 45,-9 h 25 c 4,-5.33333 6,-8.33333 6,-9 0,-0.66667 -1,-6.66667 -3,-18 -2.66666,-8.66667 -6,-15 -10,-19 h -13 c -20.66666,1.33333 -56.66666,2 -108,2 -18.66667,0 -35.66667,0 -51,0 -15.33333,0 -27.66667,0 -37,0 -9.33333,0 -15,-0.33333 -17,-1 -9.33333,0 -14,2.66667 -14,8 0,2 0.66667,7 2,15 2.66667,10.66667 5,17 7,19 2,2 8.66667,3 20,3 32,0 51.33333,2.33333 58,7 5.33333,3.33333 14.66667,32.66666 28,88 13.33334,55.3333359 20.33334,83.666666 21,85 0,0.666668 -2.33334,-0.333334 -7,-3 C 240,3 206.66667,-10 172,-10 135.33333,-10 103,3.3333321 75,30 47,56.666668 33,99 33,157 Z m 319,169 c -15.33334,52.66666 -40.33334,79 -75,79 -23.33333,0 -45.66667,-10.33334 -67,-31 -21.33333,-20.66666 -38,-47.66666 -50,-81 -19.33333,-52.66667 -33,-107.33333 -41,-164 0,-2 0,-5.66666 0,-11 0,-5.33334 -0.33334,-9.33334 -1,-12 0,-30 6,-50.666664 18,-62 12,-11.333336 26.33333,-17.333334 43,-18 36,0 73,24 111,72 l 8,11 z" />
            <path
               inkscape:connector-curvature="0"
               id="path56"
               style="fill:none;stroke:#000000;stroke-width:1;stroke-linecap:butt;stroke-linejoin:miter;stroke-miterlimit:10;stroke-dasharray:none;stroke-opacity:0.00779999"
               d="m 33,157 c 0,67.33334 25.333332,131.33334 76,192 50.66667,60.66666 107.66666,91.33334 171,92 40,0 70.66666,-17.33334 92,-52 0.66666,0.66666 2.33334,2.66666 5,6 2.66666,3.33334 6.33334,7 11,11 4.66666,4 10,8 16,12 22.66666,16 38,24 46,24 2.66666,0 5,-1 7,-3 2,-2 3,-3.66666 3,-5 0,-6 -23,-101 -69,-285 -47.33334,-189.333344 -71,-285.33333 -71,-288 0,-5.33333 15,-8.33333 45,-9 h 25 c 4,-5.33333 6,-8.33333 6,-9 0,-0.66667 -1,-6.66667 -3,-18 -2.66666,-8.66667 -6,-15 -10,-19 h -13 c -20.66666,1.33333 -56.66666,2 -108,2 -18.66667,0 -35.66667,0 -51,0 -15.33333,0 -27.66667,0 -37,0 -9.33333,0 -15,-0.33333 -17,-1 -9.33333,0 -14,2.66667 -14,8 0,2 0.66667,7 2,15 2.66667,10.66667 5,17 7,19 2,2 8.66667,3 20,3 32,0 51.33333,2.33333 58,7 5.33333,3.33333 14.66667,32.66666 28,88 13.33334,55.3333359 20.33334,83.666666 21,85 0,0.666668 -2.33334,-0.333334 -7,-3 C 240,3 206.66667,-10 172,-10 135.33333,-10 103,3.3333321 75,30 47,56.666668 33,99 33,157 Z m 319,169 c -15.33334,52.66666 -40.33334,79 -75,79 -23.33333,0 -45.66667,-10.33334 -67,-31 -21.33333,-20.66666 -38,-47.66666 -50,-81 -19.33333,-52.66667 -33,-107.33333 -41,-164 0,-2 0,-5.66666 0,-11 0,-5.33334 -0.33334,-9.33334 -1,-12 0,-30 6,-50.666664 18,-62 12,-11.333336 26.33333,-17.333334 43,-18 36,0 73,24 111,72 l 8,11 z" />
          </g>
          <g
             transform="matrix(0.02298339,0,0,-0.02169564,225.66992,351.65549)"
             id="g58">
            <path
               inkscape:connector-curvature="0"
               id="path60"
               style="fill:#000000;fill-opacity:1;fill-rule:nonzero;stroke:none"
               d="m 109,429 c -18,0 -32.333336,6 -43,18 -10.666668,12 -16,26.66666 -16,44 0,47.33331 17.666664,88.33331 53,123 35.33334,34.66669 79.33333,52 132,52 60.66666,0 111.33334,-18.66669 152,-56 40.66666,-37.33331 61.33334,-85.66669 62,-145 0,-28.66666 -6.66666,-56 -20,-82 -13.33334,-26 -29.33334,-48.66666 -48,-68 -18.66666,-19.33334 -45.33334,-44 -80,-74 -24,-20.66667 -57.33333,-51.33333 -100,-92 l -59,-56 76,-1 c 104.66669,0 160.33334,1.666664 167,5 4.66666,1.333336 12.66666,31 24,89 v 3 h 40 v -3 C 448.33334,184 444,153.66667 436,95 428,36.333332 423,5.666667 421,3 V 0 H 50 v 19 12 c 0,4.666668 2,9.666668 6,15 4,5.333332 14,17 30,35 19.33334,21.33334 36,40 50,56 6,6.66667 17.33333,19 34,37 16.66667,18 28,30.33333 34,37 6,6.66667 15.66667,17.66667 29,33 13.33333,15.33334 22.66667,26.66666 28,34 5.33334,7.33334 13,17.33334 23,30 10,12.66666 17,23.33334 21,32 4,8.66666 9,18.33334 15,29 6,10.66666 10.33334,21.33334 13,32 2.66666,10.66666 5,20.66666 7,30 2,9.33334 3,20.33334 3,33 0,42 -11.33334,78.33331 -34,109 -22.66666,30.66669 -55,46 -97,46 -22,0 -41.33333,-5.66669 -58,-17 -16.66667,-11.33331 -28.33334,-22.33331 -35,-33 -6.66666,-10.66669 -10,-17 -10,-19 0,-0.66669 1.66666,-1 5,-1 12,0 24.33333,-4.66669 37,-14 12.66667,-9.33331 19,-24.66666 19,-46 0,-16.66666 -5.33333,-30.66666 -16,-42 -10.66667,-11.33334 -25.66667,-17.33334 -45,-18 z" />
            <path
               inkscape:connector-curvature="0"
               id="path62"
               style="fill:none;stroke:#000000;stroke-width:1;stroke-linecap:butt;stroke-linejoin:miter;stroke-miterlimit:10;stroke-dasharray:none;stroke-opacity:0.00390003"
               d="m 109,429 c -18,0 -32.333336,6 -43,18 -10.666668,12 -16,26.66666 -16,44 0,47.33331 17.666664,88.33331 53,123 35.33334,34.66669 79.33333,52 132,52 60.66666,0 111.33334,-18.66669 152,-56 40.66666,-37.33331 61.33334,-85.66669 62,-145 0,-28.66666 -6.66666,-56 -20,-82 -13.33334,-26 -29.33334,-48.66666 -48,-68 -18.66666,-19.33334 -45.33334,-44 -80,-74 -24,-20.66667 -57.33333,-51.33333 -100,-92 l -59,-56 76,-1 c 104.66669,0 160.33334,1.666664 167,5 4.66666,1.333336 12.66666,31 24,89 v 3 h 40 v -3 C 448.33334,184 444,153.66667 436,95 428,36.333332 423,5.666667 421,3 V 0 H 50 v 19 12 c 0,4.666668 2,9.666668 6,15 4,5.333332 14,17 30,35 19.33334,21.33334 36,40 50,56 6,6.66667 17.33333,19 34,37 16.66667,18 28,30.33333 34,37 6,6.66667 15.66667,17.66667 29,33 13.33333,15.33334 22.66667,26.66666 28,34 5.33334,7.33334 13,17.33334 23,30 10,12.66666 17,23.33334 21,32 4,8.66666 9,18.33334 15,29 6,10.66666 10.33334,21.33334 13,32 2.66666,10.66666 5,20.66666 7,30 2,9.33334 3,20.33334 3,33 0,42 -11.33334,78.33331 -34,109 -22.66666,30.66669 -55,46 -97,46 -22,0 -41.33333,-5.66669 -58,-17 -16.66667,-11.33331 -28.33334,-22.33331 -35,-33 -6.66666,-10.66669 -10,-17 -10,-19 0,-0.66669 1.66666,-1 5,-1 12,0 24.33333,-4.66669 37,-14 12.66667,-9.33331 19,-24.66666 19,-46 0,-16.66666 -5.33333,-30.66666 -16,-42 -10.66667,-11.33334 -25.66667,-17.33334 -45,-18 z" />
          </g>
        </g>
      </g>
      <g
         id="g64">
        <g
           clip-path="url(#clipPath70)"
           id="g66">
          <g
             transform="matrix(1.1992339,1.7126836,-1.7126836,1.1992339,326.71039,-55.811718)"
             id="g72">
            <path
               inkscape:connector-curvature="0"
               id="path74"
               style="fill:#e6e6e6;fill-opacity:1;fill-rule:nonzero;stroke:none"
               d="m 59,131.00999 h 90 v 10 H 59 Z" />
            <path
               inkscape:connector-curvature="0"
               id="path76"
               style="fill:none;stroke:#000000;stroke-width:1;stroke-linecap:butt;stroke-linejoin:miter;stroke-miterlimit:10;stroke-dasharray:none;stroke-opacity:1"
               d="m 59,131.00999 h 90 v 10 H 59 Z" />
          </g>
          <g
             transform="matrix(2.0908005,0,0,2.0908005,1.0454003,1.0454003)"
             id="g78">
            <path
               inkscape:connector-curvature="0"
               id="path80"
               style="fill:#f7f7f7;fill-opacity:1;fill-rule:nonzero;stroke:none"
               d="m 149,176 c -2e-5,0.98491 -0.0961,1.96036 -0.28822,2.92635 -0.19216,0.96595 -0.47669,1.90391 -0.85359,2.81385 -0.37693,0.90996 -0.83898,1.77439 -1.38616,2.59331 -0.5472,0.81894 -1.16901,1.57663 -1.86543,2.27307 -0.69646,0.69643 -1.45415,1.31824 -2.27307,1.86544 -0.81893,0.54718 -1.68337,1.00923 -2.59331,1.38613 -0.90993,0.37691 -1.8479,0.66144 -2.81389,0.8536 -0.96599,0.19215 -1.94142,0.28823 -2.92633,0.28825 -0.98492,-2e-5 -1.96039,-0.0961 -2.92638,-0.28825 -0.96599,-0.19216 -1.90394,-0.47669 -2.81389,-0.8536 -0.90994,-0.3769 -1.77437,-0.83895 -2.5933,-1.38615 -0.81893,-0.54718 -1.57661,-1.16899 -2.27304,-1.86542 -0.69644,-0.69644 -1.31826,-1.45413 -1.86545,-2.27305 -0.54719,-0.81893 -1.00923,-1.68337 -1.38615,-2.59331 -0.37691,-0.90994 -0.66144,-1.8479 -0.85358,-2.81389 C 119.09606,177.96034 118.99999,176.98491 119,176 c -1e-5,-0.98492 0.0961,-1.96037 0.28821,-2.92636 0.19214,-0.96599 0.47667,-1.90396 0.85358,-2.8139 0.37691,-0.90995 0.83896,-1.77439 1.38615,-2.59331 0.54719,-0.81893 1.16901,-1.5766 1.86545,-2.27304 0.69643,-0.69645 1.45411,-1.31826 2.27304,-1.86545 0.81893,-0.54718 1.68336,-1.00923 2.5933,-1.38614 0.90995,-0.37691 1.8479,-0.66144 2.81389,-0.85359 C 132.03961,161.09607 133.01508,161 134,161 c 0.98491,0 1.96034,0.0961 2.92633,0.28821 0.96599,0.19215 1.90396,0.47668 2.81389,0.85359 0.90994,0.37691 1.77438,0.83896 2.59332,1.38614 0.81893,0.54719 1.5766,1.169 2.27306,1.86545 0.69642,0.69644 1.31823,1.45411 1.86543,2.27304 0.54718,0.81892 1.00923,1.68336 1.38616,2.59331 0.3769,0.90994 0.66143,1.84791 0.85359,2.8139 0.19213,0.96599 0.2882,1.94144 0.28822,2.92636 z" />
            <path
               inkscape:connector-curvature="0"
               id="path82"
               style="fill:none;stroke:#000000;stroke-width:1;stroke-linecap:butt;stroke-linejoin:miter;stroke-miterlimit:10;stroke-dasharray:none;stroke-opacity:1"
               d="m 149,176 c -2e-5,0.98491 -0.0961,1.96036 -0.28822,2.92635 -0.19216,0.96595 -0.47669,1.90391 -0.85359,2.81385 -0.37693,0.90996 -0.83898,1.77439 -1.38616,2.59331 -0.5472,0.81894 -1.16901,1.57663 -1.86543,2.27307 -0.69646,0.69643 -1.45415,1.31824 -2.27307,1.86544 -0.81893,0.54718 -1.68337,1.00923 -2.59331,1.38613 -0.90993,0.37691 -1.8479,0.66144 -2.81389,0.8536 -0.96599,0.19215 -1.94142,0.28823 -2.92633,0.28825 -0.98492,-2e-5 -1.96039,-0.0961 -2.92638,-0.28825 -0.96599,-0.19216 -1.90394,-0.47669 -2.81389,-0.8536 -0.90994,-0.3769 -1.77437,-0.83895 -2.5933,-1.38615 -0.81893,-0.54718 -1.57661,-1.16899 -2.27304,-1.86542 -0.69644,-0.69644 -1.31826,-1.45413 -1.86545,-2.27305 -0.54719,-0.81893 -1.00923,-1.68337 -1.38615,-2.59331 -0.37691,-0.90994 -0.66144,-1.8479 -0.85358,-2.81389 C 119.09606,177.96034 118.99999,176.98491 119,176 c -1e-5,-0.98492 0.0961,-1.96037 0.28821,-2.92636 0.19214,-0.96599 0.47667,-1.90396 0.85358,-2.8139 0.37691,-0.90995 0.83896,-1.77439 1.38615,-2.59331 0.54719,-0.81893 1.16901,-1.5766 1.86545,-2.27304 0.69643,-0.69645 1.45411,-1.31826 2.27304,-1.86545 0.81893,-0.54718 1.68336,-1.00923 2.5933,-1.38614 0.90995,-0.37691 1.8479,-0.66144 2.81389,-0.85359 C 132.03961,161.09607 133.01508,161 134,161 c 0.98491,0 1.96034,0.0961 2.92633,0.28821 0.96599,0.19215 1.90396,0.47668 2.81389,0.85359 0.90994,0.37691 1.77438,0.83896 2.59332,1.38614 0.81893,0.54719 1.5766,1.169 2.27306,1.86545 0.69642,0.69644 1.31823,1.45411 1.86543,2.27304 0.54718,0.81892 1.00923,1.68336 1.38616,2.59331 0.3769,0.90994 0.66143,1.84791 0.85359,2.8139 0.19213,0.96599 0.2882,1.94144 0.28822,2.92636 z" />
            <path
               inkscape:connector-curvature="0"
               id="path84"
               style="fill:none;stroke:#000000;stroke-width:1;stroke-linecap:butt;stroke-linejoin:miter;stroke-miterlimit:10;stroke-dasharray:none;stroke-opacity:1"
               d="M 1,11 H 121" />
            <path
               inkscape:connector-curvature="0"
               id="path86"
               style="fill:none;stroke:#000000;stroke-width:1;stroke-linecap:butt;stroke-linejoin:miter;stroke-miterlimit:10;stroke-dasharray:none;stroke-opacity:1"
               d="M 11,11 1,21" />
            <path
               inkscape:connector-curvature="0"
               id="path88"
               style="fill:none;stroke:#000000;stroke-width:1;stroke-linecap:butt;stroke-linejoin:miter;stroke-miterlimit:10;stroke-dasharray:none;stroke-opacity:1"
               d="M 21,11 11,21" />
            <path
               inkscape:connector-curvature="0"
               id="path90"
               style="fill:none;stroke:#000000;stroke-width:1;stroke-linecap:butt;stroke-linejoin:miter;stroke-miterlimit:10;stroke-dasharray:none;stroke-opacity:1"
               d="M 31,11 21,21" />
            <path
               inkscape:connector-curvature="0"
               id="path92"
               style="fill:none;stroke:#000000;stroke-width:1;stroke-linecap:butt;stroke-linejoin:miter;stroke-miterlimit:10;stroke-dasharray:none;stroke-opacity:1"
               d="M 41,11 31,21" />
            <path
               inkscape:connector-curvature="0"
               id="path94"
               style="fill:none;stroke:#000000;stroke-width:1;stroke-linecap:butt;stroke-linejoin:miter;stroke-miterlimit:10;stroke-dasharray:none;stroke-opacity:1"
               d="M 51,11 41,21" />
            <path
               inkscape:connector-curvature="0"
               id="path96"
               style="fill:none;stroke:#000000;stroke-width:1;stroke-linecap:butt;stroke-linejoin:miter;stroke-miterlimit:10;stroke-dasharray:none;stroke-opacity:1"
               d="M 61,11 51,21" />
            <path
               inkscape:connector-curvature="0"
               id="path98"
               style="fill:none;stroke:#000000;stroke-width:1;stroke-linecap:butt;stroke-linejoin:miter;stroke-miterlimit:10;stroke-dasharray:none;stroke-opacity:1"
               d="M 71,11 61,21" />
            <path
               inkscape:connector-curvature="0"
               id="path100"
               style="fill:none;stroke:#000000;stroke-width:1;stroke-linecap:butt;stroke-linejoin:miter;stroke-miterlimit:10;stroke-dasharray:none;stroke-opacity:1"
               d="M 81,11 71,21" />
            <path
               inkscape:connector-curvature="0"
               id="path102"
               style="fill:none;stroke:#000000;stroke-width:1;stroke-linecap:butt;stroke-linejoin:miter;stroke-miterlimit:10;stroke-dasharray:none;stroke-opacity:1"
               d="M 91,11 81,21" />
            <path
               inkscape:connector-curvature="0"
               id="path104"
               style="fill:none;stroke:#000000;stroke-width:1;stroke-linecap:butt;stroke-linejoin:miter;stroke-miterlimit:10;stroke-dasharray:none;stroke-opacity:1"
               d="M 101,11 91,21" />
            <path
               inkscape:connector-curvature="0"
               id="path106"
               style="fill:none;stroke:#000000;stroke-width:1;stroke-linecap:butt;stroke-linejoin:miter;stroke-miterlimit:10;stroke-dasharray:none;stroke-opacity:1"
               d="M 111,11 101,21" />
          </g>
          <g
             transform="matrix(0.54113901,2.0195582,-2.0195582,0.54113901,229.63562,-41.739712)"
             id="g108">
            <path
               inkscape:connector-curvature="0"
               id="path110"
               style="fill:#e6e6e6;fill-opacity:1;fill-rule:nonzero;stroke:none"
               d="m 23,56.009998 h 90 v 9.999996 H 23 Z" />
            <path
               inkscape:connector-curvature="0"
               id="path112"
               style="fill:none;stroke:#000000;stroke-width:1;stroke-linecap:butt;stroke-linejoin:miter;stroke-miterlimit:10;stroke-dasharray:none;stroke-opacity:1"
               d="m 23,56.009998 h 90 v 9.999996 H 23 Z" />
          </g>
          <g
             transform="matrix(2.0908005,0,0,2.0908005,1.0454003,1.0454003)"
             id="g114">
            <path
               inkscape:connector-curvature="0"
               id="path116"
               style="fill:#f7f7f7;fill-opacity:1;fill-rule:nonzero;stroke:none"
               d="m 71,16 c -8e-6,0.984915 -0.09608,1.960365 -0.288223,2.926353 -0.192154,0.965991 -0.476685,1.903956 -0.853592,2.813897 -0.376915,0.90994 -0.838959,1.774374 -1.386147,2.593299 -0.547188,0.818926 -1.169006,1.576611 -1.86544,2.273051 -0.696442,0.696438 -1.454125,1.31825 -2.273049,1.86544 -0.818927,0.54719 -1.683361,1.009239 -2.593303,1.386151 -0.909939,0.376911 -1.847904,0.661439 -2.813896,0.853588 C 57.960361,30.903925 56.984913,30.999998 56,31 55.015087,30.999998 54.039631,30.90393 53.073639,30.711779 52.107647,30.51963 51.169682,30.235102 50.259743,29.858191 49.3498,29.481279 48.485367,29.01923 47.666443,28.47204 46.847515,27.92485 46.089832,27.303038 45.393394,26.6066 44.696957,25.91016 44.075138,25.152475 43.527946,24.333549 42.980762,23.514624 42.518715,22.65019 42.141804,21.74025 41.764893,20.830309 41.480366,19.892344 41.288219,18.926353 41.096069,17.960365 40.999996,16.984915 41,16 c -4e-6,-0.984915 0.09607,-1.960367 0.288219,-2.926356 0.192147,-0.965989 0.476674,-1.903955 0.853585,-2.813896 0.376911,-0.9099422 0.838958,-1.7743764 1.386146,-2.5933023 0.547192,-0.8189263 1.169007,-1.5766086 1.865444,-2.2730479 0.696438,-0.6964393 1.454121,-1.3182535 2.273049,-1.8654425 0.818924,-0.547189 1.683357,-1.0092385 2.5933,-1.3861485 0.909939,-0.3769102 1.847904,-0.6614389 2.813896,-0.853586 C 54.039631,1.0960736 55.015087,1 56,1 c 0.984913,0 1.960361,0.096074 2.92635,0.2882208 0.965992,0.1921471 1.903957,0.4766758 2.813896,0.853586 0.909942,0.37691 1.774376,0.8389595 2.593303,1.3861485 0.818924,0.547189 1.576607,1.1690032 2.273049,1.8654425 0.696434,0.6964393 1.318252,1.4541216 1.86544,2.2730479 0.547188,0.8189268 1.009232,1.6833611 1.386147,2.5933033 0.376907,0.909941 0.661438,1.847907 0.853592,2.813896 C 70.903923,14.039634 70.999992,15.015085 71,16 Z" />
            <path
               inkscape:connector-curvature="0"
               id="path118"
               style="fill:none;stroke:#000000;stroke-width:1;stroke-linecap:butt;stroke-linejoin:miter;stroke-miterlimit:10;stroke-dasharray:none;stroke-opacity:1"
               d="m 71,16 c -8e-6,0.984915 -0.09608,1.960365 -0.288223,2.926353 -0.192154,0.965991 -0.476685,1.903956 -0.853592,2.813897 -0.376915,0.90994 -0.838959,1.774374 -1.386147,2.593299 -0.547188,0.818926 -1.169006,1.576611 -1.86544,2.273051 -0.696442,0.696438 -1.454125,1.31825 -2.273049,1.86544 -0.818927,0.54719 -1.683361,1.009239 -2.593303,1.386151 -0.909939,0.376911 -1.847904,0.661439 -2.813896,0.853588 C 57.960361,30.903925 56.984913,30.999998 56,31 55.015087,30.999998 54.039631,30.90393 53.073639,30.711779 52.107647,30.51963 51.169682,30.235102 50.259743,29.858191 49.3498,29.481279 48.485367,29.01923 47.666443,28.47204 46.847515,27.92485 46.089832,27.303038 45.393394,26.6066 44.696957,25.91016 44.075138,25.152475 43.527946,24.333549 42.980762,23.514624 42.518715,22.65019 42.141804,21.74025 41.764893,20.830309 41.480366,19.892344 41.288219,18.926353 41.096069,17.960365 40.999996,16.984915 41,16 c -4e-6,-0.984915 0.09607,-1.960367 0.288219,-2.926356 0.192147,-0.965989 0.476674,-1.903955 0.853585,-2.813896 0.376911,-0.9099422 0.838958,-1.7743764 1.386146,-2.5933023 0.547192,-0.8189263 1.169007,-1.5766086 1.865444,-2.2730479 0.696438,-0.6964393 1.454121,-1.3182535 2.273049,-1.8654425 0.818924,-0.547189 1.683357,-1.0092385 2.5933,-1.3861485 0.909939,-0.3769102 1.847904,-0.6614389 2.813896,-0.853586 C 54.039631,1.0960736 55.015087,1 56,1 c 0.984913,0 1.960361,0.096074 2.92635,0.2882208 0.965992,0.1921471 1.903957,0.4766758 2.813896,0.853586 0.909942,0.37691 1.774376,0.8389595 2.593303,1.3861485 0.818924,0.547189 1.576607,1.1690032 2.273049,1.8654425 0.696434,0.6964393 1.318252,1.4541216 1.86544,2.2730479 0.547188,0.8189268 1.009232,1.6833611 1.386147,2.5933033 0.376907,0.909941 0.661438,1.847907 0.853592,2.813896 C 70.903923,14.039634 70.999992,15.015085 71,16 Z" />
            <path
               inkscape:connector-curvature="0"
               id="path120"
               style="fill:#f7f7f7;fill-opacity:1;fill-rule:nonzero;stroke:none"
               d="m 94,100 c -8e-6,0.98492 -0.09609,1.96037 -0.288231,2.92635 -0.192154,0.96598 -0.476684,1.90395 -0.853592,2.81389 -0.376907,0.90994 -0.838959,1.77438 -1.386146,2.5933 -0.547188,0.81893 -1.168999,1.57661 -1.865441,2.27305 -0.696441,0.69643 -1.454124,1.31825 -2.273056,1.86544 -0.818924,0.54718 -1.683357,1.00923 -2.593292,1.38615 -0.909943,0.3769 -1.847908,0.66144 -2.813896,0.85359 C 80.960358,114.90392 79.984909,114.99999 79,115 c -0.984917,-1e-5 -1.960373,-0.0961 -2.926361,-0.28823 -0.965996,-0.19215 -1.903961,-0.47669 -2.813896,-0.85359 -0.909943,-0.37692 -1.774376,-0.83897 -2.5933,-1.38615 -0.818932,-0.54719 -1.576615,-1.16901 -2.273049,-1.86544 -0.696441,-0.69644 -1.318252,-1.45412 -1.86544,-2.27306 -0.547188,-0.81891 -1.009239,-1.68335 -1.386154,-2.59329 -0.376915,-0.90994 -0.661438,-1.84791 -0.853584,-2.81389 C 64.096069,101.96037 63.999996,100.98492 64,100 c -4e-6,-0.984917 0.09607,-1.960373 0.288216,-2.926369 0.192146,-0.96598 0.476669,-1.903946 0.853584,-2.813888 0.376915,-0.909935 0.838966,-1.774369 1.386154,-2.5933 0.547188,-0.818932 1.168999,-1.576615 1.86544,-2.273049 0.696434,-0.696441 1.454117,-1.318252 2.273041,-1.86544 0.818932,-0.547188 1.683365,-1.009239 2.593308,-1.386154 0.909935,-0.376915 1.8479,-0.661438 2.813896,-0.853584 C 77.039627,85.096077 78.015083,85.000008 79,85 c 0.984909,8e-6 1.960358,0.09608 2.926346,0.288216 0.965988,0.192146 1.903953,0.476669 2.813896,0.853584 0.909935,0.376915 1.774368,0.838966 2.5933,1.386154 0.818924,0.547188 1.576607,1.168999 2.273048,1.86544 0.696442,0.696434 1.318253,1.454117 1.865441,2.273049 0.547187,0.818931 1.009239,1.683365 1.386146,2.5933 0.376908,0.909942 0.661438,1.847908 0.853592,2.813896 C 93.903915,98.039627 93.999992,99.015083 94,100 Z" />
            <path
               inkscape:connector-curvature="0"
               id="path122"
               style="fill:none;stroke:#000000;stroke-width:1;stroke-linecap:butt;stroke-linejoin:miter;stroke-miterlimit:10;stroke-dasharray:none;stroke-opacity:1"
               d="m 94,100 c -8e-6,0.98492 -0.09609,1.96037 -0.288231,2.92635 -0.192154,0.96598 -0.476684,1.90395 -0.853592,2.81389 -0.376907,0.90994 -0.838959,1.77438 -1.386146,2.5933 -0.547188,0.81893 -1.168999,1.57661 -1.865441,2.27305 -0.696441,0.69643 -1.454124,1.31825 -2.273056,1.86544 -0.818924,0.54718 -1.683357,1.00923 -2.593292,1.38615 -0.909943,0.3769 -1.847908,0.66144 -2.813896,0.85359 C 80.960358,114.90392 79.984909,114.99999 79,115 c -0.984917,-1e-5 -1.960373,-0.0961 -2.926361,-0.28823 -0.965996,-0.19215 -1.903961,-0.47669 -2.813896,-0.85359 -0.909943,-0.37692 -1.774376,-0.83897 -2.5933,-1.38615 -0.818932,-0.54719 -1.576615,-1.16901 -2.273049,-1.86544 -0.696441,-0.69644 -1.318252,-1.45412 -1.86544,-2.27306 -0.547188,-0.81891 -1.009239,-1.68335 -1.386154,-2.59329 -0.376915,-0.90994 -0.661438,-1.84791 -0.853584,-2.81389 C 64.096069,101.96037 63.999996,100.98492 64,100 c -4e-6,-0.984917 0.09607,-1.960373 0.288216,-2.926369 0.192146,-0.96598 0.476669,-1.903946 0.853584,-2.813888 0.376915,-0.909935 0.838966,-1.774369 1.386154,-2.5933 0.547188,-0.818932 1.168999,-1.576615 1.86544,-2.273049 0.696434,-0.696441 1.454117,-1.318252 2.273041,-1.86544 0.818932,-0.547188 1.683365,-1.009239 2.593308,-1.386154 0.909935,-0.376915 1.8479,-0.661438 2.813896,-0.853584 C 77.039627,85.096077 78.015083,85.000008 79,85 c 0.984909,8e-6 1.960358,0.09608 2.926346,0.288216 0.965988,0.192146 1.903953,0.476669 2.813896,0.853584 0.909935,0.376915 1.774368,0.838966 2.5933,1.386154 0.818924,0.547188 1.576607,1.168999 2.273048,1.86544 0.696442,0.696434 1.318253,1.454117 1.865441,2.273049 0.547187,0.818931 1.009239,1.683365 1.386146,2.5933 0.376908,0.909942 0.661438,1.847908 0.853592,2.813896 C 93.903915,98.039627 93.999992,99.015083 94,100 Z" />
            <path
               inkscape:connector-curvature="0"
               id="path124"
               style="fill:#0000ff;fill-opacity:1;fill-rule:nonzero;stroke:none"
               d="m 54.75,180 v -1.5 h 0.5 v 1.5 m -0.5,-3 v -1.5 h 0.5 v 1.5 m -0.5,-3 v -1.5 h 0.5 v 1.5 m -0.5,-3 v -1.5 h 0.5 v 1.5 m -0.5,-3 v -1.5 h 0.5 v 1.5 m -0.5,-3 v -1.5 h 0.5 v 1.5 m -0.5,-3 v -1.5 h 0.5 v 1.5 m -0.5,-3 v -1.5 h 0.5 v 1.5 m -0.5,-3 v -1.5 h 0.5 v 1.5 m -0.5,-3 v -1.5 h 0.5 v 1.5 m -0.5,-3 v -1.5 h 0.5 v 1.5 m -0.5,-3 v -1.5 h 0.5 v 1.5 m -0.5,-3 v -1.5 h 0.5 v 1.5 m -0.5,-3 v -1.5 h 0.5 v 1.5 m -0.5,-3 v -1.5 h 0.5 v 1.5 m -0.5,-3 v -1.5 h 0.5 v 1.5 m -0.5,-3 v -1.5 h 0.5 v 1.5 m -0.5,-3 v -1.5 h 0.5 v 1.5 m -0.5,-3 v -1.5 h 0.5 v 1.5 m -0.5,-3 v -1.5 h 0.5 v 1.5 m -0.5,-3 v -1.5 h 0.5 v 1.5 m -0.5,-3 v -1.5 h 0.5 v 1.5 m -0.5,-3 v -1.5 h 0.5 v 1.5 m -0.5,-3 v -1.5 h 0.5 v 1.5 m -0.5,-3 v -1.5 h 0.5 v 1.5 m -0.5,-3 v -1.5 h 0.5 v 1.5 m -0.5,-3 v -1.5 h 0.5 v 1.5 m -0.5,-3 v -1.5 h 0.5 V 99 m -0.5,-3 v -1.5 h 0.5 V 96 m -0.5,-3 v -1.5 h 0.5 V 93 m -0.5,-3 v -1.5 h 0.5 V 90 m -0.5,-3 v -1.5 h 0.5 V 87 m -0.5,-3 v -1.5 h 0.5 V 84 m -0.5,-3 v -1.5 h 0.5 V 81 m -0.5,-3 v -1.5 h 0.5 V 78 m -0.5,-3 v -1.5 h 0.5 V 75 m -0.5,-3 v -1.5 h 0.5 V 72 m -0.5,-3 v -1.5 h 0.5 V 69 m -0.5,-3 v -1.5 h 0.5 V 66 m -0.5,-3 v -1.5 h 0.5 V 63 m -0.5,-3 v -1.5 h 0.5 V 60 m -0.5,-3 v -1.5 h 0.5 V 57 m -0.5,-3 v -1.5 h 0.5 V 54 m -0.5,-3 v -1.5 h 0.5 V 51 m -0.5,-3 v -1.5 h 0.5 V 48" />
            <path
               inkscape:connector-curvature="0"
               id="path126"
               style="fill:#0000ff;fill-opacity:1;fill-rule:nonzero;stroke:none"
               d="m 100.75945,181.06808 -0.40849,-1.44331 0.48111,-0.13617 0.40849,1.44332 m -1.298086,-2.75045 -0.408477,-1.44331 0.481113,-0.13617 0.40847,1.44331 m -1.298069,-2.75045 -0.408485,-1.44332 0.481109,-0.13617 0.408486,1.44332 m -1.298081,-2.75045 -0.408477,-1.44331 0.481109,-0.13617 0.408478,1.44331 m -1.298073,-2.75045 -0.408485,-1.4433 0.481109,-0.13617 0.408486,1.4433 m -1.298081,-2.75045 -0.408485,-1.44331 0.48111,-0.13617 0.408485,1.44331 m -1.298073,-2.75044 -0.408485,-1.44331 0.481109,-0.13617 0.408486,1.44331 m -1.298081,-2.75046 -0.408485,-1.44331 0.48111,-0.13617 0.408485,1.44332 m -1.298073,-2.75045 -0.408485,-1.44331 0.481109,-0.13617 0.408486,1.44331 m -1.298081,-2.75045 -0.408485,-1.4433 0.481109,-0.13617 0.408486,1.4433 m -1.298081,-2.75045 -0.408477,-1.44331 0.481109,-0.13617 0.408478,1.44331 m -1.298073,-2.75045 -0.408485,-1.4433 0.481109,-0.13617 0.408486,1.4433 m -1.298081,-2.75045 -0.408477,-1.44331 0.481109,-0.13617 0.408478,1.44332 m -1.298073,-2.75045 -0.408485,-1.44331 0.481109,-0.13617 0.408486,1.44331 m -1.298081,-2.75045 -0.408477,-1.4433 0.481109,-0.13617 0.408478,1.4433 m -1.298073,-2.75045 -0.408485,-1.44331 0.481109,-0.13617 0.408486,1.44331 m -1.298081,-2.75044 -0.408485,-1.44331 0.48111,-0.13617 0.408485,1.44331 m -1.298073,-2.75046 -0.408485,-1.44331 0.481109,-0.13617 0.408486,1.44332 m -1.298081,-2.75046 -0.294586,-1.04087 0.48111,-0.13616 0.294586,1.04086" />
            <path
               inkscape:connector-curvature="0"
               id="path128"
               style="fill:none;stroke:#0000ff;stroke-width:1;stroke-linecap:butt;stroke-linejoin:miter;stroke-miterlimit:10;stroke-dasharray:none;stroke-opacity:1"
               d="m 55,141 c 12.666664,2 21.769997,-0.003 27.309998,-6.01" />
            <path
               inkscape:connector-curvature="0"
               id="path130"
               style="fill:#0000ff;fill-opacity:1;fill-rule:nonzero;stroke:none"
               d="m 85.620003,131.41 -2.020005,6.98 -1.29,-3.4 L 78.82,133.98 Z" />
            <path
               inkscape:connector-curvature="0"
               id="path132"
               style="fill:none;stroke:#0000ff;stroke-width:1;stroke-linecap:butt;stroke-linejoin:miter;stroke-miterlimit:10;stroke-dasharray:none;stroke-opacity:1"
               d="m 85.620003,131.41 -2.020005,6.98 -1.29,-3.4 L 78.82,133.98 Z" />
            <path
               inkscape:connector-curvature="0"
               id="path134"
               style="fill:none;stroke:#0000ff;stroke-width:1;stroke-linecap:butt;stroke-linejoin:miter;stroke-miterlimit:10;stroke-dasharray:none;stroke-opacity:1"
               d="m 95,157 c 6,1.33333 11.32667,-0.11333 15.98,-4.34" />
            <path
               inkscape:connector-curvature="0"
               id="path136"
               style="fill:#0000ff;fill-opacity:1;fill-rule:nonzero;stroke:none"
               d="m 114.59,149.38 -2.63,6.76999 -0.98,-3.48999 -3.39,-1.32 z" />
            <path
               inkscape:connector-curvature="0"
               id="path138"
               style="fill:none;stroke:#0000ff;stroke-width:1;stroke-linecap:butt;stroke-linejoin:miter;stroke-miterlimit:10;stroke-dasharray:none;stroke-opacity:1"
               d="m 114.59,149.38 -2.63,6.76999 -0.98,-3.48999 -3.39,-1.32 z" />
          </g>
        </g>
      </g>
      <g
         id="g140">
        <g
           clip-path="url(#clipPath146)"
           id="g142">
          <g
             transform="matrix(0.0313797,0,0,-0.0306869,204.90131,217.42281)"
             id="g148">
            <path
               inkscape:connector-curvature="0"
               id="path150"
               style="fill:#000000;fill-opacity:1;fill-rule:nonzero;stroke:none"
               d="m 21,287 c 0.666666,4 1.666666,9.33334 3,16 1.333334,6.66666 5.333332,19.33334 12,38 6.666668,18.66666 13.333332,34.33334 20,47 6.666668,12.66666 17.333336,25 32,37 14.66666,12 29.33334,17.66666 44,17 14.66667,-0.66666 29,-3 43,-7 14,-4 24,-10 30,-18 6,-8 11.33333,-15.33334 16,-22 4.66667,-6.66666 7.33333,-13 8,-19 l 2,-7 c 0,-1.33334 0.33333,-2 1,-2 l 11,11 c 40,42.66666 87,64 141,64 11.33334,0 21.66666,-0.66666 31,-2 9.33334,-1.33334 18,-3.66666 26,-7 8,-3.33334 14.33334,-6.66666 19,-10 4.66666,-3.33334 9.66666,-7.33334 15,-12 5.33334,-4.66666 8.66666,-9 10,-13 1.33334,-4 4,-8.33334 8,-13 4,-4.66666 5.33334,-8.66666 4,-12 -1.33334,-3.33334 -0.33334,-6.33334 3,-9 3.33334,-2.66666 4,-5 2,-7 l 8,10 c 42,50 91.66669,75 149,75 36,0 65,-9 87,-27 22,-18 33.33331,-44.33334 34,-79 0,-34 -12.66669,-86.66666 -38,-158 -25.33331,-71.33334 -38,-114 -38,-128 0.66669,-9.333336 2.33331,-15.666668 5,-19 2.66669,-3.333334 7.66669,-5 15,-5 18.66669,0 36,10 52,30 16,20 29,47.33333 39,82 2,7.33333 4,11.66667 6,13 2,1.33333 7.33331,2 16,2 13.33331,0 20,-2.66667 20,-8 0,-0.66667 -1.33331,-5.66667 -4,-15 -5.33331,-19.33334 -12.66669,-38.333328 -22,-57 -9.33331,-18.666668 -24.66669,-37.333332 -46,-56 -21.33331,-18.6666679 -44.33331,-27.666667 -69,-27 -31.33331,0 -54,9 -68,27 -14,18 -21,36.666664 -21,56 0,12.666664 12,52.66666 36,120 24,67.33334 36.33331,118 37,152 0,39.33334 -14.66669,59 -44,59 h -5 C 593.66669,404 545.33331,370.33334 506,303 L 499,291 466,157 C 444,69.666664 431.33334,22.666668 428,16 c -8.66666,-18 -23,-27 -43,-27 -8.66666,0 -15.66666,2.333333 -21,7 -5.33334,4.66666698 -9,8.6666665 -11,12 -2,3.333334 -3,6.666666 -3,10 0,7.333334 11.33334,55 34,143 l 36,146 c 2,10 3,22.66666 3,38 0,39.33334 -14.66666,59 -44,59 h -5 C 316.66666,404 268.33334,370.33334 229,303 L 222,291 189,157 C 167,69.666664 154.33333,22.666668 151,16 c -8.66667,-18 -23,-27 -43,-27 -8.666664,0 -15.666664,2 -21,6 -5.333336,4 -9,8 -11,12 -2,4 -2.666664,7.333333 -2,10 0,8.666668 12.666664,63.333328 38,164 26,102.66669 39,156.33334 39,161 2,10 3,19 3,27 0,24 -8.33333,36 -25,36 -14.66666,0 -27,-9.33334 -37,-28 C 82,358.33334 74.333336,338 69,316 63.666668,294 59.666668,282 57,280 55.666668,278.66666 50.333336,278 41,278 H 27 c -4,4 -6,7 -6,9 z" />
            <path
               inkscape:connector-curvature="0"
               id="path152"
               style="fill:none;stroke:#000000;stroke-width:1;stroke-linecap:butt;stroke-linejoin:miter;stroke-miterlimit:10;stroke-dasharray:none;stroke-opacity:0.00779999"
               d="m 21,287 c 0.666666,4 1.666666,9.33334 3,16 1.333334,6.66666 5.333332,19.33334 12,38 6.666668,18.66666 13.333332,34.33334 20,47 6.666668,12.66666 17.333336,25 32,37 14.66666,12 29.33334,17.66666 44,17 14.66667,-0.66666 29,-3 43,-7 14,-4 24,-10 30,-18 6,-8 11.33333,-15.33334 16,-22 4.66667,-6.66666 7.33333,-13 8,-19 l 2,-7 c 0,-1.33334 0.33333,-2 1,-2 l 11,11 c 40,42.66666 87,64 141,64 11.33334,0 21.66666,-0.66666 31,-2 9.33334,-1.33334 18,-3.66666 26,-7 8,-3.33334 14.33334,-6.66666 19,-10 4.66666,-3.33334 9.66666,-7.33334 15,-12 5.33334,-4.66666 8.66666,-9 10,-13 1.33334,-4 4,-8.33334 8,-13 4,-4.66666 5.33334,-8.66666 4,-12 -1.33334,-3.33334 -0.33334,-6.33334 3,-9 3.33334,-2.66666 4,-5 2,-7 l 8,10 c 42,50 91.66669,75 149,75 36,0 65,-9 87,-27 22,-18 33.33331,-44.33334 34,-79 0,-34 -12.66669,-86.66666 -38,-158 -25.33331,-71.33334 -38,-114 -38,-128 0.66669,-9.333336 2.33331,-15.666668 5,-19 2.66669,-3.333334 7.66669,-5 15,-5 18.66669,0 36,10 52,30 16,20 29,47.33333 39,82 2,7.33333 4,11.66667 6,13 2,1.33333 7.33331,2 16,2 13.33331,0 20,-2.66667 20,-8 0,-0.66667 -1.33331,-5.66667 -4,-15 -5.33331,-19.33334 -12.66669,-38.333328 -22,-57 -9.33331,-18.666668 -24.66669,-37.333332 -46,-56 -21.33331,-18.6666679 -44.33331,-27.666667 -69,-27 -31.33331,0 -54,9 -68,27 -14,18 -21,36.666664 -21,56 0,12.666664 12,52.66666 36,120 24,67.33334 36.33331,118 37,152 0,39.33334 -14.66669,59 -44,59 h -5 C 593.66669,404 545.33331,370.33334 506,303 L 499,291 466,157 C 444,69.666664 431.33334,22.666668 428,16 c -8.66666,-18 -23,-27 -43,-27 -8.66666,0 -15.66666,2.333333 -21,7 -5.33334,4.66666698 -9,8.6666665 -11,12 -2,3.333334 -3,6.666666 -3,10 0,7.333334 11.33334,55 34,143 l 36,146 c 2,10 3,22.66666 3,38 0,39.33334 -14.66666,59 -44,59 h -5 C 316.66666,404 268.33334,370.33334 229,303 L 222,291 189,157 C 167,69.666664 154.33333,22.666668 151,16 c -8.66667,-18 -23,-27 -43,-27 -8.666664,0 -15.666664,2 -21,6 -5.333336,4 -9,8 -11,12 -2,4 -2.666664,7.333333 -2,10 0,8.666668 12.666664,63.333328 38,164 26,102.66669 39,156.33334 39,161 2,10 3,19 3,27 0,24 -8.33333,36 -25,36 -14.66666,0 -27,-9.33334 -37,-28 C 82,358.33334 74.333336,338 69,316 63.666668,294 59.666668,282 57,280 55.666668,278.66666 50.333336,278 41,278 H 27 c -4,4 -6,7 -6,9 z" />
          </g>
          <g
             transform="matrix(0.02218545,0,0,-0.02169564,232.45268,222.02585)"
             id="g154">
            <path
               inkscape:connector-curvature="0"
               id="path156"
               style="fill:#000000;fill-opacity:1;fill-rule:nonzero;stroke:none"
               d="m 213,578 -13,-5 c -9.33333,-3.33331 -22.66667,-6.66669 -40,-10 -17.33333,-3.33331 -36.66666,-5.66669 -58,-7 H 83 v 46 h 19 c 31.33333,1.33331 60.33333,6.33331 87,15 26.66667,8.66669 45.33333,16.66669 56,24 10.66667,7.33331 20,14.66669 28,22 1.33334,2 5.33334,3 12,3 6,0 11.66666,-2 17,-6 V 361 l 1,-300 c 4.66666,-4.666668 8.66666,-7.666668 12,-9 3.33334,-1.333332 11.33334,-2.666668 24,-4 12.66666,-1.333332 33.33334,-2 62,-2 h 26 V 0 H 416 C 402,2 349,3 257,3 166.33333,3 114,2 100,0 H 88 v 46 h 26 c 14.66667,0 27.33333,0 38,0 10.66667,0 19,0.333332 25,1 6,0.666668 11.33333,1.666668 16,3 4.66667,1.333332 7.33333,2 8,2 0.66667,0 2.66667,1.666668 6,5 3.33333,3.333332 5.33333,4.666668 6,4 z" />
            <path
               inkscape:connector-curvature="0"
               id="path158"
               style="fill:none;stroke:#000000;stroke-width:1;stroke-linecap:butt;stroke-linejoin:miter;stroke-miterlimit:10;stroke-dasharray:none;stroke-opacity:0.00390003"
               d="m 213,578 -13,-5 c -9.33333,-3.33331 -22.66667,-6.66669 -40,-10 -17.33333,-3.33331 -36.66666,-5.66669 -58,-7 H 83 v 46 h 19 c 31.33333,1.33331 60.33333,6.33331 87,15 26.66667,8.66669 45.33333,16.66669 56,24 10.66667,7.33331 20,14.66669 28,22 1.33334,2 5.33334,3 12,3 6,0 11.66666,-2 17,-6 V 361 l 1,-300 c 4.66666,-4.666668 8.66666,-7.666668 12,-9 3.33334,-1.333332 11.33334,-2.666668 24,-4 12.66666,-1.333332 33.33334,-2 62,-2 h 26 V 0 H 416 C 402,2 349,3 257,3 166.33333,3 114,2 100,0 H 88 v 46 h 26 c 14.66667,0 27.33333,0 38,0 10.66667,0 19,0.333332 25,1 6,0.666668 11.33333,1.666668 16,3 4.66667,1.333332 7.33333,2 8,2 0.66667,0 2.66667,1.666668 6,5 3.33333,3.333332 5.33333,4.666668 6,4 z" />
          </g>
        </g>
      </g>
      <g
         id="g160">
        <g
           clip-path="url(#clipPath166)"
           id="g162">
          <g
             transform="matrix(0.0313797,0,0,-0.0306869,330.34933,376.32361)"
             id="g168">
            <path
               inkscape:connector-curvature="0"
               id="path170"
               style="fill:#000000;fill-opacity:1;fill-rule:nonzero;stroke:none"
               d="m 21,287 c 0.666666,4 1.666666,9.33334 3,16 1.333334,6.66666 5.333332,19.33334 12,38 6.666668,18.66666 13.333332,34.33334 20,47 6.666668,12.66666 17.333336,25 32,37 14.66666,12 29.33334,17.66666 44,17 14.66667,-0.66666 29,-3 43,-7 14,-4 24,-10 30,-18 6,-8 11.33333,-15.33334 16,-22 4.66667,-6.66666 7.33333,-13 8,-19 l 2,-7 c 0,-1.33334 0.33333,-2 1,-2 l 11,11 c 40,42.66666 87,64 141,64 11.33334,0 21.66666,-0.66666 31,-2 9.33334,-1.33334 18,-3.66666 26,-7 8,-3.33334 14.33334,-6.66666 19,-10 4.66666,-3.33334 9.66666,-7.33334 15,-12 5.33334,-4.66666 8.66666,-9 10,-13 1.33334,-4 4,-8.33334 8,-13 4,-4.66666 5.33334,-8.66666 4,-12 -1.33334,-3.33334 -0.33334,-6.33334 3,-9 3.33334,-2.66666 4,-5 2,-7 l 8,10 c 42,50 91.66669,75 149,75 36,0 65,-9 87,-27 22,-18 33.33331,-44.33334 34,-79 0,-34 -12.66669,-86.66666 -38,-158 -25.33331,-71.33334 -38,-114 -38,-128 0.66669,-9.333336 2.33331,-15.666668 5,-19 2.66669,-3.333334 7.66669,-5 15,-5 18.66669,0 36,10 52,30 16,20 29,47.33333 39,82 2,7.33333 4,11.66667 6,13 2,1.33333 7.33331,2 16,2 13.33331,0 20,-2.66667 20,-8 0,-0.66667 -1.33331,-5.66667 -4,-15 -5.33331,-19.33334 -12.66669,-38.333328 -22,-57 -9.33331,-18.666668 -24.66669,-37.333332 -46,-56 -21.33331,-18.6666679 -44.33331,-27.666667 -69,-27 -31.33331,0 -54,9 -68,27 -14,18 -21,36.666664 -21,56 0,12.666664 12,52.66666 36,120 24,67.33334 36.33331,118 37,152 0,39.33334 -14.66669,59 -44,59 h -5 C 593.66669,404 545.33331,370.33334 506,303 L 499,291 466,157 C 444,69.666664 431.33334,22.666668 428,16 c -8.66666,-18 -23,-27 -43,-27 -8.66666,0 -15.66666,2.333333 -21,7 -5.33334,4.66666698 -9,8.6666665 -11,12 -2,3.333334 -3,6.666666 -3,10 0,7.333334 11.33334,55 34,143 l 36,146 c 2,10 3,22.66666 3,38 0,39.33334 -14.66666,59 -44,59 h -5 C 316.66666,404 268.33334,370.33334 229,303 L 222,291 189,157 C 167,69.666664 154.33333,22.666668 151,16 c -8.66667,-18 -23,-27 -43,-27 -8.666664,0 -15.666664,2 -21,6 -5.333336,4 -9,8 -11,12 -2,4 -2.666664,7.333333 -2,10 0,8.666668 12.666664,63.333328 38,164 26,102.66669 39,156.33334 39,161 2,10 3,19 3,27 0,24 -8.33333,36 -25,36 -14.66666,0 -27,-9.33334 -37,-28 C 82,358.33334 74.333336,338 69,316 63.666668,294 59.666668,282 57,280 55.666668,278.66666 50.333336,278 41,278 H 27 c -4,4 -6,7 -6,9 z" />
            <path
               inkscape:connector-curvature="0"
               id="path172"
               style="fill:none;stroke:#000000;stroke-width:1;stroke-linecap:butt;stroke-linejoin:miter;stroke-miterlimit:10;stroke-dasharray:none;stroke-opacity:0.00779999"
               d="m 21,287 c 0.666666,4 1.666666,9.33334 3,16 1.333334,6.66666 5.333332,19.33334 12,38 6.666668,18.66666 13.333332,34.33334 20,47 6.666668,12.66666 17.333336,25 32,37 14.66666,12 29.33334,17.66666 44,17 14.66667,-0.66666 29,-3 43,-7 14,-4 24,-10 30,-18 6,-8 11.33333,-15.33334 16,-22 4.66667,-6.66666 7.33333,-13 8,-19 l 2,-7 c 0,-1.33334 0.33333,-2 1,-2 l 11,11 c 40,42.66666 87,64 141,64 11.33334,0 21.66666,-0.66666 31,-2 9.33334,-1.33334 18,-3.66666 26,-7 8,-3.33334 14.33334,-6.66666 19,-10 4.66666,-3.33334 9.66666,-7.33334 15,-12 5.33334,-4.66666 8.66666,-9 10,-13 1.33334,-4 4,-8.33334 8,-13 4,-4.66666 5.33334,-8.66666 4,-12 -1.33334,-3.33334 -0.33334,-6.33334 3,-9 3.33334,-2.66666 4,-5 2,-7 l 8,10 c 42,50 91.66669,75 149,75 36,0 65,-9 87,-27 22,-18 33.33331,-44.33334 34,-79 0,-34 -12.66669,-86.66666 -38,-158 -25.33331,-71.33334 -38,-114 -38,-128 0.66669,-9.333336 2.33331,-15.666668 5,-19 2.66669,-3.333334 7.66669,-5 15,-5 18.66669,0 36,10 52,30 16,20 29,47.33333 39,82 2,7.33333 4,11.66667 6,13 2,1.33333 7.33331,2 16,2 13.33331,0 20,-2.66667 20,-8 0,-0.66667 -1.33331,-5.66667 -4,-15 -5.33331,-19.33334 -12.66669,-38.333328 -22,-57 -9.33331,-18.666668 -24.66669,-37.333332 -46,-56 -21.33331,-18.6666679 -44.33331,-27.666667 -69,-27 -31.33331,0 -54,9 -68,27 -14,18 -21,36.666664 -21,56 0,12.666664 12,52.66666 36,120 24,67.33334 36.33331,118 37,152 0,39.33334 -14.66669,59 -44,59 h -5 C 593.66669,404 545.33331,370.33334 506,303 L 499,291 466,157 C 444,69.666664 431.33334,22.666668 428,16 c -8.66666,-18 -23,-27 -43,-27 -8.66666,0 -15.66666,2.333333 -21,7 -5.33334,4.66666698 -9,8.6666665 -11,12 -2,3.333334 -3,6.666666 -3,10 0,7.333334 11.33334,55 34,143 l 36,146 c 2,10 3,22.66666 3,38 0,39.33334 -14.66666,59 -44,59 h -5 C 316.66666,404 268.33334,370.33334 229,303 L 222,291 189,157 C 167,69.666664 154.33333,22.666668 151,16 c -8.66667,-18 -23,-27 -43,-27 -8.666664,0 -15.666664,2 -21,6 -5.333336,4 -9,8 -11,12 -2,4 -2.666664,7.333333 -2,10 0,8.666668 12.666664,63.333328 38,164 26,102.66669 39,156.33334 39,161 2,10 3,19 3,27 0,24 -8.33333,36 -25,36 -14.66666,0 -27,-9.33334 -37,-28 C 82,358.33334 74.333336,338 69,316 63.666668,294 59.666668,282 57,280 55.666668,278.66666 50.333336,278 41,278 H 27 c -4,4 -6,7 -6,9 z" />
          </g>
          <g
             transform="matrix(0.02218545,0,0,-0.02169564,357.90073,380.92667)"
             id="g174">
            <path
               inkscape:connector-curvature="0"
               id="path176"
               style="fill:#000000;fill-opacity:1;fill-rule:nonzero;stroke:none"
               d="m 109,429 c -18,0 -32.333336,6 -43,18 -10.666668,12 -16,26.66666 -16,44 0,47.33331 17.666664,88.33331 53,123 35.33334,34.66669 79.33333,52 132,52 60.66666,0 111.33334,-18.66669 152,-56 40.66666,-37.33331 61.33334,-85.66669 62,-145 0,-28.66666 -6.66666,-56 -20,-82 -13.33334,-26 -29.33334,-48.66666 -48,-68 -18.66666,-19.33334 -45.33334,-44 -80,-74 -24,-20.66667 -57.33333,-51.33333 -100,-92 l -59,-56 76,-1 c 104.66669,0 160.33334,1.666664 167,5 4.66666,1.333336 12.66666,31 24,89 v 3 h 40 v -3 C 448.33334,184 444,153.66667 436,95 428,36.333332 423,5.666667 421,3 V 0 H 50 v 19 12 c 0,4.666668 2,9.666668 6,15 4,5.333332 14,17 30,35 19.33334,21.33334 36,40 50,56 6,6.66667 17.33333,19 34,37 16.66667,18 28,30.33333 34,37 6,6.66667 15.66667,17.66667 29,33 13.33333,15.33334 22.66667,26.66666 28,34 5.33334,7.33334 13,17.33334 23,30 10,12.66666 17,23.33334 21,32 4,8.66666 9,18.33334 15,29 6,10.66666 10.33334,21.33334 13,32 2.66666,10.66666 5,20.66666 7,30 2,9.33334 3,20.33334 3,33 0,42 -11.33334,78.33331 -34,109 -22.66666,30.66669 -55,46 -97,46 -22,0 -41.33333,-5.66669 -58,-17 -16.66667,-11.33331 -28.33334,-22.33331 -35,-33 -6.66666,-10.66669 -10,-17 -10,-19 0,-0.66669 1.66666,-1 5,-1 12,0 24.33333,-4.66669 37,-14 12.66667,-9.33331 19,-24.66666 19,-46 0,-16.66666 -5.33333,-30.66666 -16,-42 -10.66667,-11.33334 -25.66667,-17.33334 -45,-18 z" />
            <path
               inkscape:connector-curvature="0"
               id="path178"
               style="fill:none;stroke:#000000;stroke-width:1;stroke-linecap:butt;stroke-linejoin:miter;stroke-miterlimit:10;stroke-dasharray:none;stroke-opacity:0.00390003"
               d="m 109,429 c -18,0 -32.333336,6 -43,18 -10.666668,12 -16,26.66666 -16,44 0,47.33331 17.666664,88.33331 53,123 35.33334,34.66669 79.33333,52 132,52 60.66666,0 111.33334,-18.66669 152,-56 40.66666,-37.33331 61.33334,-85.66669 62,-145 0,-28.66666 -6.66666,-56 -20,-82 -13.33334,-26 -29.33334,-48.66666 -48,-68 -18.66666,-19.33334 -45.33334,-44 -80,-74 -24,-20.66667 -57.33333,-51.33333 -100,-92 l -59,-56 76,-1 c 104.66669,0 160.33334,1.666664 167,5 4.66666,1.333336 12.66666,31 24,89 v 3 h 40 v -3 C 448.33334,184 444,153.66667 436,95 428,36.333332 423,5.666667 421,3 V 0 H 50 v 19 12 c 0,4.666668 2,9.666668 6,15 4,5.333332 14,17 30,35 19.33334,21.33334 36,40 50,56 6,6.66667 17.33333,19 34,37 16.66667,18 28,30.33333 34,37 6,6.66667 15.66667,17.66667 29,33 13.33333,15.33334 22.66667,26.66666 28,34 5.33334,7.33334 13,17.33334 23,30 10,12.66666 17,23.33334 21,32 4,8.66666 9,18.33334 15,29 6,10.66666 10.33334,21.33334 13,32 2.66666,10.66666 5,20.66666 7,30 2,9.33334 3,20.33334 3,33 0,42 -11.33334,78.33331 -34,109 -22.66666,30.66669 -55,46 -97,46 -22,0 -41.33333,-5.66669 -58,-17 -16.66667,-11.33331 -28.33334,-22.33331 -35,-33 -6.66666,-10.66669 -10,-17 -10,-19 0,-0.66669 1.66666,-1 5,-1 12,0 24.33333,-4.66669 37,-14 12.66667,-9.33331 19,-24.66666 19,-46 0,-16.66666 -5.33333,-30.66666 -16,-42 -10.66667,-11.33334 -25.66667,-17.33334 -45,-18 z" />
          </g>
        </g>
      </g>
      <g
         id="g180">
        <g
           clip-path="url(#clipPath186)"
           id="g182">
          <g
             transform="matrix(0.03334318,0,0,-0.03264176,173.53754,137.43504)"
             id="g188">
            <path
               inkscape:connector-curvature="0"
               id="path190"
               style="fill:#000000;fill-opacity:1;fill-rule:nonzero;stroke:none"
               d="m 117,59 c 0,-22 8.33333,-33 25,-33 24.66667,0 45.66667,35 63,105 4,13.33333 7.33333,20.33333 10,21 1.33333,0.66667 4.66667,1 10,1 h 4 c 6,0 10,0 12,0 2,0 3.66667,-0.66667 5,-2 1.33333,-1.33333 2,-3.66667 2,-7 -0.66667,-4 -1.66667,-9.33333 -3,-16 -1.33333,-6.66666 -5,-19.33333 -11,-38 C 228,71.333328 221.33333,55.666668 214,43 206.66667,30.333332 196.33333,18 183,6 169.66667,-6 154.33333,-11.666667 137,-11 113,-11 90.666672,-3.666667 70,11 49.333332,25.666668 38.666668,50.333332 38,85 c 0,8 0.333332,13.666664 1,17 l 65,258 c 42,170 63,257.66669 63,263 0,2 -0.33333,3.66669 -1,5 -0.66667,1.33331 -2,2.66669 -4,4 -2,1.33331 -3.66667,2 -5,2 -1.33333,0 -4,0.33331 -8,1 -4,0.66669 -6.66667,1 -8,1 -1.33333,0 -4.33333,0.33331 -9,1 -4.66666,0.66669 -8,0.66669 -10,0 -6.66666,0 -11,0 -13,0 -2,0 -4.66666,0.33331 -8,1 -3.333336,0.66669 -5.333336,1.66669 -6,3 -0.666664,1.33331 -1,3.33331 -1,6 0,1.33331 0.666664,6 2,14 3.333336,12.66669 7,19.66669 11,21 4,1.33331 28,3.33331 72,6 10,0.66669 21.33333,1.33331 34,2 12.66667,0.66669 22.66667,1.66669 30,3 7.33333,1.33331 11,1.66669 11,1 8,0 12,-2.66669 12,-8 0,-7.33331 -24.33333,-107.33331 -73,-300 C 144.33333,193.33333 119.33334,92.333336 118,83 c 0,-1.333336 0,-4 0,-8 0,-4 -0.33334,-7.333336 -1,-10 z" />
            <path
               inkscape:connector-curvature="0"
               id="path192"
               style="fill:none;stroke:#000000;stroke-width:1;stroke-linecap:butt;stroke-linejoin:miter;stroke-miterlimit:10;stroke-dasharray:none;stroke-opacity:0.00779999"
               d="m 117,59 c 0,-22 8.33333,-33 25,-33 24.66667,0 45.66667,35 63,105 4,13.33333 7.33333,20.33333 10,21 1.33333,0.66667 4.66667,1 10,1 h 4 c 6,0 10,0 12,0 2,0 3.66667,-0.66667 5,-2 1.33333,-1.33333 2,-3.66667 2,-7 -0.66667,-4 -1.66667,-9.33333 -3,-16 -1.33333,-6.66666 -5,-19.33333 -11,-38 C 228,71.333328 221.33333,55.666668 214,43 206.66667,30.333332 196.33333,18 183,6 169.66667,-6 154.33333,-11.666667 137,-11 113,-11 90.666672,-3.666667 70,11 49.333332,25.666668 38.666668,50.333332 38,85 c 0,8 0.333332,13.666664 1,17 l 65,258 c 42,170 63,257.66669 63,263 0,2 -0.33333,3.66669 -1,5 -0.66667,1.33331 -2,2.66669 -4,4 -2,1.33331 -3.66667,2 -5,2 -1.33333,0 -4,0.33331 -8,1 -4,0.66669 -6.66667,1 -8,1 -1.33333,0 -4.33333,0.33331 -9,1 -4.66666,0.66669 -8,0.66669 -10,0 -6.66666,0 -11,0 -13,0 -2,0 -4.66666,0.33331 -8,1 -3.333336,0.66669 -5.333336,1.66669 -6,3 -0.666664,1.33331 -1,3.33331 -1,6 0,1.33331 0.666664,6 2,14 3.333336,12.66669 7,19.66669 11,21 4,1.33331 28,3.33331 72,6 10,0.66669 21.33333,1.33331 34,2 12.66667,0.66669 22.66667,1.66669 30,3 7.33333,1.33331 11,1.66669 11,1 8,0 12,-2.66669 12,-8 0,-7.33331 -24.33333,-107.33331 -73,-300 C 144.33333,193.33333 119.33334,92.333336 118,83 c 0,-1.333336 0,-4 0,-8 0,-4 -0.33334,-7.333336 -1,-10 z" />
          </g>
          <g
             transform="matrix(0.02357363,0,0,-0.02307772,183.4738,142.33131)"
             id="g194">
            <path
               inkscape:connector-curvature="0"
               id="path196"
               style="fill:#000000;fill-opacity:1;fill-rule:nonzero;stroke:none"
               d="m 213,578 -13,-5 c -9.33333,-3.33331 -22.66667,-6.66669 -40,-10 -17.33333,-3.33331 -36.66666,-5.66669 -58,-7 H 83 v 46 h 19 c 31.33333,1.33331 60.33333,6.33331 87,15 26.66667,8.66669 45.33333,16.66669 56,24 10.66667,7.33331 20,14.66669 28,22 1.33334,2 5.33334,3 12,3 6,0 11.66666,-2 17,-6 V 361 l 1,-300 c 4.66666,-4.666668 8.66666,-7.666668 12,-9 3.33334,-1.333332 11.33334,-2.666668 24,-4 12.66666,-1.333332 33.33334,-2 62,-2 h 26 V 0 H 416 C 402,2 349,3 257,3 166.33333,3 114,2 100,0 H 88 v 46 h 26 c 14.66667,0 27.33333,0 38,0 10.66667,0 19,0.333332 25,1 6,0.666668 11.33333,1.666668 16,3 4.66667,1.333332 7.33333,2 8,2 0.66667,0 2.66667,1.666668 6,5 3.33333,3.333332 5.33333,4.666668 6,4 z" />
            <path
               inkscape:connector-curvature="0"
               id="path198"
               style="fill:none;stroke:#000000;stroke-width:1;stroke-linecap:butt;stroke-linejoin:miter;stroke-miterlimit:10;stroke-dasharray:none;stroke-opacity:0.00390003"
               d="m 213,578 -13,-5 c -9.33333,-3.33331 -22.66667,-6.66669 -40,-10 -17.33333,-3.33331 -36.66666,-5.66669 -58,-7 H 83 v 46 h 19 c 31.33333,1.33331 60.33333,6.33331 87,15 26.66667,8.66669 45.33333,16.66669 56,24 10.66667,7.33331 20,14.66669 28,22 1.33334,2 5.33334,3 12,3 6,0 11.66666,-2 17,-6 V 361 l 1,-300 c 4.66666,-4.666668 8.66666,-7.666668 12,-9 3.33334,-1.333332 11.33334,-2.666668 24,-4 12.66666,-1.333332 33.33334,-2 62,-2 h 26 V 0 H 416 C 402,2 349,3 257,3 166.33333,3 114,2 100,0 H 88 v 46 h 26 c 14.66667,0 27.33333,0 38,0 10.66667,0 19,0.333332 25,1 6,0.666668 11.33333,1.666668 16,3 4.66667,1.333332 7.33333,2 8,2 0.66667,0 2.66667,1.666668 6,5 3.33333,3.333332 5.33333,4.666668 6,4 z" />
          </g>
        </g>
      </g>
      <g
         id="g200">
        <g
           clip-path="url(#clipPath206)"
           id="g202">
          <g
             transform="matrix(0.03334318,0,0,-0.03264176,255.07877,294.24509)"
             id="g208">
            <path
               inkscape:connector-curvature="0"
               id="path210"
               style="fill:#000000;fill-opacity:1;fill-rule:nonzero;stroke:none"
               d="m 117,59 c 0,-22 8.33333,-33 25,-33 24.66667,0 45.66667,35 63,105 4,13.33333 7.33333,20.33333 10,21 1.33333,0.66667 4.66667,1 10,1 h 4 c 6,0 10,0 12,0 2,0 3.66667,-0.66667 5,-2 1.33333,-1.33333 2,-3.66667 2,-7 -0.66667,-4 -1.66667,-9.33333 -3,-16 -1.33333,-6.66666 -5,-19.33333 -11,-38 C 228,71.333328 221.33333,55.666668 214,43 206.66667,30.333332 196.33333,18 183,6 169.66667,-6 154.33333,-11.666667 137,-11 113,-11 90.666672,-3.666667 70,11 49.333332,25.666668 38.666668,50.333332 38,85 c 0,8 0.333332,13.666664 1,17 l 65,258 c 42,170 63,257.66669 63,263 0,2 -0.33333,3.66669 -1,5 -0.66667,1.33331 -2,2.66669 -4,4 -2,1.33331 -3.66667,2 -5,2 -1.33333,0 -4,0.33331 -8,1 -4,0.66669 -6.66667,1 -8,1 -1.33333,0 -4.33333,0.33331 -9,1 -4.66666,0.66669 -8,0.66669 -10,0 -6.66666,0 -11,0 -13,0 -2,0 -4.66666,0.33331 -8,1 -3.333336,0.66669 -5.333336,1.66669 -6,3 -0.666664,1.33331 -1,3.33331 -1,6 0,1.33331 0.666664,6 2,14 3.333336,12.66669 7,19.66669 11,21 4,1.33331 28,3.33331 72,6 10,0.66669 21.33333,1.33331 34,2 12.66667,0.66669 22.66667,1.66669 30,3 7.33333,1.33331 11,1.66669 11,1 8,0 12,-2.66669 12,-8 0,-7.33331 -24.33333,-107.33331 -73,-300 C 144.33333,193.33333 119.33334,92.333336 118,83 c 0,-1.333336 0,-4 0,-8 0,-4 -0.33334,-7.333336 -1,-10 z" />
            <path
               inkscape:connector-curvature="0"
               id="path212"
               style="fill:none;stroke:#000000;stroke-width:1;stroke-linecap:butt;stroke-linejoin:miter;stroke-miterlimit:10;stroke-dasharray:none;stroke-opacity:0.00779999"
               d="m 117,59 c 0,-22 8.33333,-33 25,-33 24.66667,0 45.66667,35 63,105 4,13.33333 7.33333,20.33333 10,21 1.33333,0.66667 4.66667,1 10,1 h 4 c 6,0 10,0 12,0 2,0 3.66667,-0.66667 5,-2 1.33333,-1.33333 2,-3.66667 2,-7 -0.66667,-4 -1.66667,-9.33333 -3,-16 -1.33333,-6.66666 -5,-19.33333 -11,-38 C 228,71.333328 221.33333,55.666668 214,43 206.66667,30.333332 196.33333,18 183,6 169.66667,-6 154.33333,-11.666667 137,-11 113,-11 90.666672,-3.666667 70,11 49.333332,25.666668 38.666668,50.333332 38,85 c 0,8 0.333332,13.666664 1,17 l 65,258 c 42,170 63,257.66669 63,263 0,2 -0.33333,3.66669 -1,5 -0.66667,1.33331 -2,2.66669 -4,4 -2,1.33331 -3.66667,2 -5,2 -1.33333,0 -4,0.33331 -8,1 -4,0.66669 -6.66667,1 -8,1 -1.33333,0 -4.33333,0.33331 -9,1 -4.66666,0.66669 -8,0.66669 -10,0 -6.66666,0 -11,0 -13,0 -2,0 -4.66666,0.33331 -8,1 -3.333336,0.66669 -5.333336,1.66669 -6,3 -0.666664,1.33331 -1,3.33331 -1,6 0,1.33331 0.666664,6 2,14 3.333336,12.66669 7,19.66669 11,21 4,1.33331 28,3.33331 72,6 10,0.66669 21.33333,1.33331 34,2 12.66667,0.66669 22.66667,1.66669 30,3 7.33333,1.33331 11,1.66669 11,1 8,0 12,-2.66669 12,-8 0,-7.33331 -24.33333,-107.33331 -73,-300 C 144.33333,193.33333 119.33334,92.333336 118,83 c 0,-1.333336 0,-4 0,-8 0,-4 -0.33334,-7.333336 -1,-10 z" />
          </g>
          <g
             transform="matrix(0.02357363,0,0,-0.02307772,265.01505,299.14136)"
             id="g214">
            <path
               inkscape:connector-curvature="0"
               id="path216"
               style="fill:#000000;fill-opacity:1;fill-rule:nonzero;stroke:none"
               d="m 109,429 c -18,0 -32.333336,6 -43,18 -10.666668,12 -16,26.66666 -16,44 0,47.33331 17.666664,88.33331 53,123 35.33334,34.66669 79.33333,52 132,52 60.66666,0 111.33334,-18.66669 152,-56 40.66666,-37.33331 61.33334,-85.66669 62,-145 0,-28.66666 -6.66666,-56 -20,-82 -13.33334,-26 -29.33334,-48.66666 -48,-68 -18.66666,-19.33334 -45.33334,-44 -80,-74 -24,-20.66667 -57.33333,-51.33333 -100,-92 l -59,-56 76,-1 c 104.66669,0 160.33334,1.666664 167,5 4.66666,1.333336 12.66666,31 24,89 v 3 h 40 v -3 C 448.33334,184 444,153.66667 436,95 428,36.333332 423,5.666667 421,3 V 0 H 50 v 19 12 c 0,4.666668 2,9.666668 6,15 4,5.333332 14,17 30,35 19.33334,21.33334 36,40 50,56 6,6.66667 17.33333,19 34,37 16.66667,18 28,30.33333 34,37 6,6.66667 15.66667,17.66667 29,33 13.33333,15.33334 22.66667,26.66666 28,34 5.33334,7.33334 13,17.33334 23,30 10,12.66666 17,23.33334 21,32 4,8.66666 9,18.33334 15,29 6,10.66666 10.33334,21.33334 13,32 2.66666,10.66666 5,20.66666 7,30 2,9.33334 3,20.33334 3,33 0,42 -11.33334,78.33331 -34,109 -22.66666,30.66669 -55,46 -97,46 -22,0 -41.33333,-5.66669 -58,-17 -16.66667,-11.33331 -28.33334,-22.33331 -35,-33 -6.66666,-10.66669 -10,-17 -10,-19 0,-0.66669 1.66666,-1 5,-1 12,0 24.33333,-4.66669 37,-14 12.66667,-9.33331 19,-24.66666 19,-46 0,-16.66666 -5.33333,-30.66666 -16,-42 -10.66667,-11.33334 -25.66667,-17.33334 -45,-18 z" />
            <path
               inkscape:connector-curvature="0"
               id="path218"
               style="fill:none;stroke:#000000;stroke-width:1;stroke-linecap:butt;stroke-linejoin:miter;stroke-miterlimit:10;stroke-dasharray:none;stroke-opacity:0.00390003"
               d="m 109,429 c -18,0 -32.333336,6 -43,18 -10.666668,12 -16,26.66666 -16,44 0,47.33331 17.666664,88.33331 53,123 35.33334,34.66669 79.33333,52 132,52 60.66666,0 111.33334,-18.66669 152,-56 40.66666,-37.33331 61.33334,-85.66669 62,-145 0,-28.66666 -6.66666,-56 -20,-82 -13.33334,-26 -29.33334,-48.66666 -48,-68 -18.66666,-19.33334 -45.33334,-44 -80,-74 -24,-20.66667 -57.33333,-51.33333 -100,-92 l -59,-56 76,-1 c 104.66669,0 160.33334,1.666664 167,5 4.66666,1.333336 12.66666,31 24,89 v 3 h 40 v -3 C 448.33334,184 444,153.66667 436,95 428,36.333332 423,5.666667 421,3 V 0 H 50 v 19 12 c 0,4.666668 2,9.666668 6,15 4,5.333332 14,17 30,35 19.33334,21.33334 36,40 50,56 6,6.66667 17.33333,19 34,37 16.66667,18 28,30.33333 34,37 6,6.66667 15.66667,17.66667 29,33 13.33333,15.33334 22.66667,26.66666 28,34 5.33334,7.33334 13,17.33334 23,30 10,12.66666 17,23.33334 21,32 4,8.66666 9,18.33334 15,29 6,10.66666 10.33334,21.33334 13,32 2.66666,10.66666 5,20.66666 7,30 2,9.33334 3,20.33334 3,33 0,42 -11.33334,78.33331 -34,109 -22.66666,30.66669 -55,46 -97,46 -22,0 -41.33333,-5.66669 -58,-17 -16.66667,-11.33331 -28.33334,-22.33331 -35,-33 -6.66666,-10.66669 -10,-17 -10,-19 0,-0.66669 1.66666,-1 5,-1 12,0 24.33333,-4.66669 37,-14 12.66667,-9.33331 19,-24.66666 19,-46 0,-16.66666 -5.33333,-30.66666 -16,-42 -10.66667,-11.33334 -25.66667,-17.33334 -45,-18 z" />
          </g>
        </g>
      </g>
    </g>
    <path
       style="fill:none;stroke:#000000;stroke-width:0.24699999;stroke-linecap:butt;stroke-linejoin:miter;stroke-miterlimit:4;stroke-dasharray:none;stroke-opacity:1;marker-end:url(#Arrow1Send)"
       d="m 99.450395,108.09213 c 0,0 1.522375,2.38504 2.902995,-0.0355"
       id="path911"
       inkscape:connector-curvature="0"
       sodipodi:nodetypes="cc" />
    <path
       style="fill:none;stroke:#000000;stroke-width:0.24699999;stroke-linecap:butt;stroke-linejoin:miter;stroke-miterlimit:4;stroke-dasharray:none;stroke-opacity:1;marker-end:url(#Arrow1Send-3)"
       d="m 103.55846,122.78051 c 0,0 1.52238,2.38504 2.903,-0.0355"
       id="path911-7"
       inkscape:connector-curvature="0"
       sodipodi:nodetypes="cc" />
    <text
       xml:space="preserve"
       style="font-style:normal;font-weight:normal;font-size:2.8222229px;line-height:1.25;font-family:sans-serif;letter-spacing:0px;word-spacing:0px;fill:#000000;fill-opacity:1;stroke:none;stroke-width:0.26458332;"
       x="108.26814"
       y="115.70425"
       id="text2054"><tspan
         sodipodi:role="line"
         id="tspan2052"
         x="108.26814"
         y="120.69826"
         style="stroke-width:0.26458332;font-size:2.8222229px;" /></text>
    <text
       xml:space="preserve"
       style="font-style:normal;font-weight:normal;font-size:2.82222271px;line-height:1.25;font-family:sans-serif;letter-spacing:0px;word-spacing:0px;fill:#000000;fill-opacity:1;stroke:none;stroke-width:0.26458332"
       x="108.22088"
       y="115.94049"
       id="text2058"><tspan
         sodipodi:role="line"
         id="tspan2056"
         x="108.22088"
         y="115.94049"
         style="stroke-width:0.26458332">r</tspan></text>
    <text
       xml:space="preserve"
       style="font-style:normal;font-weight:normal;font-size:2.82222271px;line-height:1.25;font-family:sans-serif;letter-spacing:0px;word-spacing:0px;fill:#000000;fill-opacity:1;stroke:none;stroke-width:0.26458332"
       x="110.53598"
       y="116.22397"
       id="text2062"><tspan
         sodipodi:role="line"
         id="tspan2060"
         x="110.53598"
         y="116.22397"
         style="stroke-width:0.26458332">I</tspan></text>
    <text
       xml:space="preserve"
       style="font-style:normal;font-weight:normal;font-size:2.82222271px;line-height:1.25;font-family:sans-serif;letter-spacing:0px;word-spacing:0px;fill:#000000;fill-opacity:1;stroke:none;stroke-width:0.26458332"
       x="114.73676"
       y="129.20616"
       id="text2058-5"><tspan
         sodipodi:role="line"
         id="tspan2056-3"
         x="114.73676"
         y="129.20616"
         style="stroke-width:0.26458332">r</tspan></text>
    <text
       xml:space="preserve"
       style="font-style:normal;font-weight:normal;font-size:2.82222271px;line-height:1.25;font-family:sans-serif;letter-spacing:0px;word-spacing:0px;fill:#000000;fill-opacity:1;stroke:none;stroke-width:0.26458332"
       x="117.05185"
       y="129.48964"
       id="text2062-5"><tspan
         sodipodi:role="line"
         id="tspan2060-6"
         x="117.05185"
         y="129.48964"
         style="stroke-width:0.26458332">I</tspan></text>
    <text
       xml:space="preserve"
       style="font-style:normal;font-weight:normal;font-size:1.76388914px;line-height:1.25;font-family:sans-serif;letter-spacing:0px;word-spacing:0px;fill:#000000;fill-opacity:1;stroke:none;stroke-width:0.26458332;"
       x="119.13495"
       y="116.5547"
       id="text2090"><tspan
         sodipodi:role="line"
         id="tspan2088"
         x="119.13495"
         y="118.42746"
         style="stroke-width:0.26458332;font-size:1.76388914px;" /></text>
    <text
       xml:space="preserve"
       style="font-style:normal;font-weight:normal;font-size:1.76388931px;line-height:1.25;font-family:sans-serif;letter-spacing:0px;word-spacing:0px;fill:#000000;fill-opacity:1;stroke:none;stroke-width:0.26458332"
       x="109.02409"
       y="116.74368"
       id="text2094"><tspan
         sodipodi:role="line"
         id="tspan2092"
         x="109.02409"
         y="116.74368"
         style="stroke-width:0.26458332">2</tspan></text>
    <text
       xml:space="preserve"
       style="font-style:normal;font-weight:normal;font-size:1.76388931px;line-height:1.25;font-family:sans-serif;letter-spacing:0px;word-spacing:0px;fill:#000000;fill-opacity:1;stroke:none;stroke-width:0.26458332"
       x="111.32147"
       y="116.92578"
       id="text2094-2"><tspan
         sodipodi:role="line"
         id="tspan2092-9"
         x="111.32147"
         y="116.92578"
         style="stroke-width:0.26458332">2</tspan></text>
    <text
       xml:space="preserve"
       style="font-style:normal;font-weight:normal;font-size:1.76388931px;line-height:1.25;font-family:sans-serif;letter-spacing:0px;word-spacing:0px;fill:#000000;fill-opacity:1;stroke:none;stroke-width:0.26458332"
       x="115.43197"
       y="129.96596"
       id="text2094-1"><tspan
         sodipodi:role="line"
         id="tspan2092-2"
         x="115.43197"
         y="129.96596"
         style="stroke-width:0.26458332">2</tspan></text>
    <text
       xml:space="preserve"
       style="font-style:normal;font-weight:normal;font-size:1.76388931px;line-height:1.25;font-family:sans-serif;letter-spacing:0px;word-spacing:0px;fill:#000000;fill-opacity:1;stroke:none;stroke-width:0.26458332"
       x="117.79432"
       y="130.1077"
       id="text2094-7"><tspan
         sodipodi:role="line"
         id="tspan2092-0"
         x="117.79432"
         y="130.1077"
         style="stroke-width:0.26458332">2</tspan></text>
    <text
       xml:space="preserve"
       style="font-style:normal;font-weight:normal;font-size:2.82222247px;line-height:1.25;font-family:sans-serif;letter-spacing:0px;word-spacing:0px;fill:#000000;fill-opacity:1;stroke:none;stroke-width:0.26458332"
       x="99.471344"
       y="107.49423"
       id="text2132"><tspan
         sodipodi:role="line"
         id="tspan2130"
         x="99.471344"
         y="107.49423"
         style="stroke-width:0.26458332">u</tspan></text>
    <text
       xml:space="preserve"
       style="font-style:normal;font-weight:normal;font-size:2.82222247px;line-height:1.25;font-family:sans-serif;letter-spacing:0px;word-spacing:0px;fill:#000000;fill-opacity:1;stroke:none;stroke-width:0.26458332"
       x="103.59068"
       y="122.36607"
       id="text2136"><tspan
         sodipodi:role="line"
         id="tspan2134"
         x="103.59068"
         y="122.36607"
         style="stroke-width:0.26458332">u</tspan></text>
    <text
       xml:space="preserve"
       style="font-style:normal;font-weight:normal;font-size:1.76388919px;line-height:1.25;font-family:sans-serif;letter-spacing:0px;word-spacing:0px;fill:#000000;fill-opacity:1;stroke:none;stroke-width:0.26458332"
       x="100.99734"
       y="108.18099"
       id="text2140"><tspan
         sodipodi:role="line"
         id="tspan2138"
         x="100.99734"
         y="108.18099"
         style="stroke-width:0.26458332">1</tspan></text>
    <text
       xml:space="preserve"
       style="font-style:normal;font-weight:normal;font-size:1.76388919px;line-height:1.25;font-family:sans-serif;letter-spacing:0px;word-spacing:0px;fill:#000000;fill-opacity:1;stroke:none;stroke-width:0.26458332"
       x="105.14983"
       y="122.74404"
       id="text2144"><tspan
         sodipodi:role="line"
         id="tspan2142"
         x="105.14983"
         y="122.74404"
         style="stroke-width:0.26458332">2</tspan></text>
  </g>
</svg>
